# Blender 4.3.2
# www.blender.org
mtllib bottle.mtl
o Cylinder
v 0.000000 0.050000 -0.200000
v 0.141421 0.050000 -0.141421
v 0.200000 0.050000 0.000000
v 0.141421 0.050000 0.141421
v 0.000000 0.050000 0.200000
v -0.141421 0.050000 0.141421
v -0.200000 0.050000 0.000000
v -0.141421 0.050000 -0.141421
v 0.000000 0.590000 -0.120000
v 0.084853 0.590000 -0.084853
v 0.120000 0.590000 0.000000
v 0.084853 0.590000 0.084853
v 0.000000 0.590000 0.120000
v -0.084853 0.590000 0.084853
v -0.120000 0.590000 0.000000
v -0.084853 0.590000 -0.084853
v 0.000000 0.650000 -0.053760
v 0.038014 0.650000 -0.038014
v 0.053760 0.650000 0.000000
v 0.038014 0.650000 0.038014
v 0.000000 0.650000 0.053760
v -0.038014 0.650000 0.038014
v -0.053760 0.650000 0.000000
v -0.038014 0.650000 -0.038014
v 0.000000 0.850000 -0.053760
v 0.038014 0.850000 -0.038014
v 0.053760 0.850000 0.000000
v 0.038014 0.850000 0.038014
v 0.000000 0.850000 0.053760
v -0.038014 0.850000 0.038014
v -0.053760 0.850000 0.000000
v -0.038014 0.850000 -0.038014
v 0.000000 0.870000 -0.069888
v 0.049418 0.870000 -0.049418
v 0.069888 0.870000 0.000000
v 0.049418 0.870000 0.049418
v 0.000000 0.870000 0.069888
v -0.049418 0.870000 0.049418
v -0.069888 0.870000 0.000000
v -0.049418 0.870000 -0.049418
v -0.000000 1.030000 -0.069888
v 0.049418 1.030000 -0.049418
v 0.069888 1.030000 0.000000
v 0.049418 1.030000 0.049418
v -0.000000 1.030000 0.069888
v -0.049418 1.030000 0.049418
v -0.069888 1.030000 0.000000
v -0.049418 1.030000 -0.049418
v -0.000000 1.050000 -0.048922
v 0.034593 1.050000 -0.034593
v 0.048922 1.050000 0.000000
v 0.034593 1.050000 0.034593
v -0.000000 1.050000 0.048922
v -0.034593 1.050000 0.034593
v -0.048922 1.050000 0.000000
v -0.034593 1.050000 -0.034593
v -0.000000 -0.010000 -0.160000
v 0.113137 -0.010000 -0.113137
v 0.160000 -0.010000 -0.000000
v 0.113137 -0.010000 0.113137
v -0.000000 -0.010000 0.160000
v -0.113137 -0.010000 0.113137
v -0.160000 -0.010000 -0.000000
v -0.113137 -0.010000 -0.113137
v 0.000000 0.430653 -0.200000
v 0.000000 0.467109 -0.190224
v 0.134508 0.467109 -0.134508
v 0.141421 0.430653 -0.141421
v 0.190224 0.467109 0.000000
v 0.200000 0.430653 0.000000
v 0.134508 0.467109 0.134508
v 0.141421 0.430653 0.141421
v 0.000000 0.467109 0.190224
v 0.000000 0.430653 0.200000
v -0.134508 0.467109 0.134508
v -0.141421 0.430653 0.141421
v -0.190224 0.467109 0.000000
v -0.200000 0.430653 0.000000
v -0.134508 0.467109 -0.134508
v -0.141421 0.430653 -0.141421
v 0.000000 -0.010000 0.000000
v -0.000000 1.050000 0.000000
vn -0.0000 -0.2719 -0.9623
vn 0.6805 -0.2719 -0.6805
vn 0.9623 -0.2719 -0.0000
vn 0.6805 -0.2719 0.6805
vn -0.0000 -0.2719 0.9623
vn -0.6805 -0.2719 0.6805
vn -0.9623 -0.2719 -0.0000
vn -0.6805 -0.2719 -0.6805
vn -0.0000 0.6082 -0.7938
vn 0.5613 0.6082 -0.5613
vn 0.7938 0.6082 -0.0000
vn 0.5613 0.6082 0.5613
vn -0.0000 0.6082 0.7938
vn -0.5613 0.6082 0.5613
vn -0.7938 0.6082 -0.0000
vn -0.5613 0.6082 -0.5613
vn -0.0000 0.4473 -0.8944
vn 0.6324 0.4473 -0.6324
vn 0.8944 0.4473 -0.0000
vn 0.6324 0.4473 0.6324
vn -0.0000 0.4473 0.8944
vn -0.6324 0.4473 0.6324
vn -0.8944 0.4473 -0.0000
vn -0.6324 0.4473 -0.6324
vn -0.0000 -0.3614 -0.9324
vn 0.6593 -0.3614 -0.6593
vn 0.9324 -0.3614 -0.0000
vn 0.6593 -0.3614 0.6593
vn -0.0000 -0.3614 0.9324
vn -0.6593 -0.3614 0.6593
vn -0.9324 -0.3614 -0.0000
vn -0.6593 -0.3614 -0.6593
vn -0.0000 -0.3098 -0.9508
vn 0.6723 -0.3098 -0.6723
vn 0.9508 -0.3098 -0.0000
vn 0.6723 -0.3098 0.6723
vn -0.0000 -0.3098 0.9508
vn -0.6723 -0.3098 0.6723
vn -0.9508 -0.3098 -0.0000
vn -0.6723 -0.3098 -0.6723
vn -0.0000 0.3625 -0.9320
vn 0.6590 0.3625 -0.6590
vn 0.9320 0.3625 -0.0000
vn 0.6590 0.3625 0.6590
vn -0.0000 0.3625 0.9320
vn -0.6590 0.3625 0.6590
vn -0.9320 0.3625 -0.0000
vn -0.6590 0.3625 -0.6590
vn -0.0000 0.8951 -0.4459
vn 0.3153 0.8951 -0.3153
vn 0.4459 0.8951 -0.0000
vn 0.3153 0.8951 0.3153
vn -0.0000 0.8951 0.4459
vn -0.3153 0.8951 0.3153
vn -0.4459 0.8951 -0.0000
vn -0.3153 0.8951 -0.3153
vn -0.0000 -0.8330 -0.5532
vn 0.3912 -0.8330 -0.3912
vn 0.5532 -0.8330 -0.0000
vn 0.3912 -0.8330 0.3912
vn -0.0000 -0.8330 0.5532
vn -0.3912 -0.8330 0.3912
vn -0.5532 -0.8330 -0.0000
vn -0.3912 -0.8330 -0.3912
vn -0.0000 0.1267 -0.9919
vn -0.0000 0.3701 -0.9290
vn 0.6569 0.3701 -0.6569
vn 0.7014 0.1267 -0.7014
vn 0.9290 0.3701 -0.0000
vn 0.9919 0.1267 -0.0000
vn 0.6569 0.3701 0.6569
vn 0.7014 0.1267 0.7014
vn -0.0000 0.3701 0.9290
vn -0.0000 0.1267 0.9919
vn -0.6569 0.3701 0.6569
vn -0.7014 0.1267 0.7014
vn -0.9290 0.3701 -0.0000
vn -0.9919 0.1267 -0.0000
vn -0.6569 0.3701 -0.6569
vn -0.7014 0.1267 -0.7014
vn -0.0000 -1.0000 -0.0000
vn -0.0000 1.0000 -0.0000
vt 0.125000 0.500000
vt 0.125000 0.975817
vt 0.000000 0.975817
vt 0.000000 0.500000
vt 0.750000 1.000000
vt 0.875000 1.000000
vt 0.625000 1.000000
vt 0.500000 1.000000
vt 0.375000 1.000000
vt 0.250000 1.000000
vt 0.125000 1.000000
vt 0.000000 1.000000
vt 0.875000 0.500000
vt 0.750000 0.500000
vt 0.750000 0.975817
vt 0.625000 0.975817
vt 0.625000 0.500000
vt 0.375000 0.500000
vt 0.375000 0.975817
vt 0.250000 0.975817
vt 0.250000 0.500000
vt 0.875000 0.975817
vt 1.000000 0.500000
vt 1.000000 0.975817
vt 0.500000 0.975817
vt 0.500000 0.500000
vt 1.000000 1.000000
vt 0.562500 1.000000
vt 0.562500 0.500000
s 1
f 8/1/8 80/2/80 65/3/65 1/4/1
f 69/5/69 67/6/67 10/6/10 11/5/11
f 71/7/71 69/5/69 11/5/11 12/7/12
f 73/8/73 71/7/71 12/7/12 13/8/13
f 75/9/75 73/8/73 13/8/13 14/9/14
f 77/10/77 75/9/75 14/9/14 15/10/15
f 79/11/79 77/10/77 15/10/15 16/11/16
f 66/12/66 79/11/79 16/11/16 9/12/9
f 2/13/2 3/14/3 59/14/59 58/13/58
f 9/12/9 16/11/16 24/11/24 17/12/17
f 3/14/3 70/15/70 72/16/72 4/17/4
f 6/18/6 76/19/76 78/20/78 7/21/7
f 2/13/2 68/22/68 70/15/70 3/14/3
f 1/23/1 65/24/65 68/22/68 2/13/2
f 4/17/4 72/16/72 74/25/74 5/26/5
f 7/21/7 78/20/78 80/2/80 8/1/8
f 5/26/5 74/25/74 76/19/76 6/18/6
f 24/11/24 23/10/23 31/10/31 32/11/32
f 15/10/15 14/9/14 22/9/22 23/10/23
f 13/8/13 12/7/12 20/7/20 21/8/21
f 11/5/11 10/6/10 18/6/18 19/5/19
f 16/11/16 15/10/15 23/10/23 24/11/24
f 14/9/14 13/8/13 21/8/21 22/9/22
f 12/7/12 11/5/11 19/5/19 20/7/20
f 10/6/10 9/27/9 17/27/17 18/6/18
f 29/8/29 28/7/28 36/7/36 37/8/37
f 22/9/22 21/8/21 29/8/29 30/9/30
f 20/7/20 19/5/19 27/5/27 28/7/28
f 18/6/18 17/27/17 25/27/25 26/6/26
f 17/12/17 24/11/24 32/11/32 25/12/25
f 23/10/23 22/9/22 30/9/30 31/10/31
f 21/8/21 20/7/20 28/7/28 29/8/29
f 19/5/19 18/6/18 26/6/26 27/5/27
f 33/12/33 40/11/40 48/11/48 41/12/41
f 27/5/27 26/6/26 34/6/34 35/5/35
f 32/11/32 31/10/31 39/10/39 40/11/40
f 30/9/30 29/8/29 37/8/37 38/9/38
f 28/7/28 27/5/27 35/5/35 36/7/36
f 26/6/26 25/27/25 33/27/33 34/6/34
f 25/12/25 32/11/32 40/11/40 33/12/33
f 31/10/31 30/9/30 38/9/38 39/10/39
f 46/9/46 45/8/45 53/8/53 54/9/54
f 39/10/39 38/9/38 46/9/46 47/10/47
f 37/8/37 36/7/36 44/7/44 45/8/45
f 35/5/35 34/6/34 42/6/42 43/5/43
f 40/11/40 39/10/39 47/10/47 48/11/48
f 38/9/38 37/8/37 45/8/45 46/9/46
f 36/7/36 35/5/35 43/5/43 44/7/44
f 34/6/34 33/27/33 41/27/41 42/6/42
f 44/7/44 43/5/43 51/5/51 52/7/52
f 42/6/42 41/27/41 49/27/49 50/6/50
f 41/12/41 48/11/48 56/11/56 49/12/49
f 47/10/47 46/9/46 54/9/54 55/10/55
f 45/8/45 44/7/44 52/7/52 53/8/53
f 43/5/43 42/6/42 50/6/50 51/5/51
f 48/11/48 47/10/47 55/10/55 56/11/56
f 50/6/50 49/27/49 82/28/82
f 5/26/5 6/18/6 62/18/62 61/26/61
f 8/1/8 1/4/1 57/4/57 64/1/64
f 1/23/1 2/13/2 58/13/58 57/23/57
f 3/14/3 4/17/4 60/17/60 59/14/59
f 6/18/6 7/21/7 63/21/63 62/18/62
f 4/17/4 5/26/5 61/26/61 60/17/60
f 7/21/7 8/1/8 64/1/64 63/21/63
f 68/22/68 65/24/65 66/27/66 67/6/67
f 70/15/70 68/22/68 67/6/67 69/5/69
f 72/16/72 70/15/70 69/5/69 71/7/71
f 74/25/74 72/16/72 71/7/71 73/8/73
f 76/19/76 74/25/74 73/8/73 75/9/75
f 78/20/78 76/19/76 75/9/75 77/10/77
f 80/2/80 78/20/78 77/10/77 79/11/79
f 65/3/65 80/2/80 79/11/79 66/12/66
f 67/6/67 66/27/66 9/27/9 10/6/10
f 57/23/57 58/13/58 81/29/81
f 58/13/58 59/14/59 81/29/81
f 59/14/59 60/17/60 81/29/81
f 60/17/60 61/26/61 81/29/81
f 61/26/61 62/18/62 81/29/81
f 62/18/62 63/21/63 81/29/81
f 63/21/63 64/1/64 81/29/81
f 64/1/64 57/23/57 81/29/81
f 49/27/49 56/11/56 82/28/82
f 56/11/56 55/10/55 82/28/82
f 55/10/55 54/9/54 82/28/82
f 54/9/54 53/8/53 82/28/82
f 53/8/53 52/7/52 82/28/82
f 52/7/52 51/5/51 82/28/82
f 51/5/51 50/6/50 82/28/82
